<svg width="42" height="18" viewBox="0 0 42 18" fill="none" xmlns="http://www.w3.org/2000/svg">
<path d="M12.8114 16.6123C13.3027 16.5873 13.7651 16.3724 14.1009 16.0129C14.4368 15.6534 14.6198 15.1775 14.6114 14.6856L14.5005 8.1832C15.4176 7.55605 17.4493 6.482 20.639 6.46803C23.8341 6.45941 25.8763 7.52478 26.7878 8.14488L26.7205 14.6465C26.7146 15.1386 26.9004 15.6136 27.2385 15.9711C27.5766 16.3286 28.0406 16.5405 28.5322 16.562L38.9268 17.0225C39.4193 17.0447 39.9011 16.874 40.2698 16.5466C40.6386 16.2193 40.8652 15.7611 40.9015 15.2695L41.299 9.868C41.2968 9.40394 41.1243 8.95685 40.8142 8.61156C40.4983 8.25753 32.9227 -0.0355264 20.6166 0.000167895C9.88459 0.0349734 2.78895 6.38705 0.94318 8.24423C0.673393 8.51568 0.515846 8.69033 0.474459 8.73735C0.166283 9.08421 -0.00270411 9.53281 3.01761e-05 9.99678L0.433112 15.3956C0.472131 15.8871 0.701185 16.344 1.07163 16.6692C1.44208 16.9945 1.92474 17.1626 2.41712 17.1377L12.8114 16.6123Z" fill="white"/>
</svg>
