<svg width="34" height="34" viewBox="0 0 34 34" fill="none" xmlns="http://www.w3.org/2000/svg">
<path d="M25.4304 19.4332C25.0663 19.1024 24.5879 18.9259 24.0962 18.9411C23.6045 18.9563 23.1379 19.162 22.7949 19.5147L18.2611 24.1771C17.1698 23.9687 14.9758 23.2848 12.7174 21.0322C10.4589 18.7721 9.77498 16.5725 9.57226 15.4889L14.2312 10.9534C14.5844 10.6108 14.7904 10.1441 14.8056 9.6523C14.8208 9.16046 14.644 8.682 14.3126 8.31818L7.31195 0.620814C6.98047 0.25585 6.51976 0.0344731 6.02767 0.00369767C5.53559 -0.0270777 5.05088 0.135174 4.67651 0.455992L0.565137 3.98166C0.237575 4.31039 0.0420639 4.7479 0.0156913 5.2112C-0.0127283 5.68482 -0.554595 16.9041 8.14559 25.6074C15.7355 33.1949 25.2428 33.75 27.8612 33.75C28.2439 33.75 28.4789 33.7386 28.5414 33.7348C29.0047 33.7089 29.442 33.5125 29.7691 33.1835L33.2931 29.0706C33.6142 28.6965 33.7768 28.2119 33.7464 27.7199C33.716 27.2278 33.4949 26.767 33.1302 26.4353L25.4304 19.4332Z" fill="white"/>
</svg>
