<svg width="136" height="107" viewBox="0 0 136 107" fill="none" xmlns="http://www.w3.org/2000/svg">
<rect width="136" height="107" rx="10" fill="white" fill-opacity="0.1"/>
<path d="M48 33C48 27.4772 52.4772 23 58 23H78C83.5228 23 88 27.4772 88 33V53C88 58.5228 83.5228 63 78 63H58C52.4772 63 48 58.5228 48 53V33Z" fill="#00BC7D"/>
<path d="M76.82 48.7316H59.18C59.081 48.7316 59 48.82 59 48.9281V50.3035C59 50.4116 59.081 50.5 59.18 50.5H76.82C76.919 50.5 77 50.4116 77 50.3035V48.9281C77 48.82 76.919 48.7316 76.82 48.7316ZM60.2082 45.6566L61.1015 46.6267C61.1712 46.7029 61.286 46.7029 61.3558 46.6267L66.6365 40.8819L68.8325 43.2717C68.9678 43.418 69.1505 43.5001 69.341 43.5001C69.5315 43.5001 69.7142 43.418 69.8495 43.2717L75.794 36.8072C75.8638 36.7311 75.8638 36.6058 75.794 36.5297L74.9008 35.5571C74.8669 35.5205 74.8212 35.5 74.7736 35.5C74.726 35.5 74.6803 35.5205 74.6465 35.5571L69.3433 41.3289L67.145 38.9391C67.0097 38.7928 66.827 38.7107 66.6365 38.7107C66.446 38.7107 66.2633 38.7928 66.128 38.9391L60.2082 45.379C60.1914 45.3972 60.1781 45.4188 60.1689 45.4426C60.1598 45.4664 60.1551 45.492 60.1551 45.5178C60.1551 45.5436 60.1598 45.5692 60.1689 45.593C60.1781 45.6168 60.1914 45.6384 60.2082 45.6566Z" fill="white"/>
<path d="M57.3242 78.9492H53.1641V82.0781H51.6875V78.9492H47.5625V77.7305H57.3242V78.9492ZM56.2812 76.957H48.793V71.8477H56.1641V73.0195H50.2578V73.8164H55.9414V74.9648H50.2578V75.7734H56.2812V76.957ZM61.8828 74.3203C61.8789 74.8789 61.9746 75.4395 62.1699 76.002C62.3691 76.5645 62.666 77.0801 63.0605 77.5488C63.4551 78.0137 63.9336 78.375 64.4961 78.6328L63.6641 79.8047C63.0859 79.5391 62.584 79.1543 62.1582 78.6504C61.7324 78.1426 61.3965 77.5566 61.1504 76.8926C60.9043 77.623 60.5605 78.2656 60.1191 78.8203C59.6816 79.375 59.1641 79.793 58.5664 80.0742L57.6992 78.8906C58.2695 78.625 58.7559 78.248 59.1582 77.7598C59.5605 77.2676 59.8633 76.7227 60.0664 76.125C60.2734 75.5273 60.3789 74.9258 60.3828 74.3203V73.6641H58.1211V72.4453H64.0273V73.6641H61.8828V74.3203ZM66.3594 75.4805H67.9297V76.7344H66.3594V82.0781H64.8594V71.4141H66.3594V75.4805ZM72.2422 73.8281C72.2383 74.4805 72.3301 75.1133 72.5176 75.7266C72.7051 76.3359 72.9883 76.8828 73.3672 77.3672C73.7461 77.8516 74.2109 78.2266 74.7617 78.4922L73.8594 79.6875C73.3047 79.4141 72.8301 79.0293 72.4355 78.5332C72.0449 78.0371 71.7344 77.4551 71.5039 76.7871C71.2656 77.498 70.9355 78.1211 70.5137 78.6562C70.0957 79.1875 69.5938 79.5977 69.0078 79.8867L68.082 78.6797C68.6641 78.4141 69.1543 78.0293 69.5527 77.5254C69.9512 77.0176 70.248 76.4453 70.4434 75.8086C70.6426 75.168 70.7422 74.5078 70.7422 73.8281V72.2344H72.2422V73.8281ZM76.7305 75.5273H78.3008V76.793H76.7305V82.0781H75.2305V71.4141H76.7305V75.5273ZM87.6523 82.0781H86.1406V71.4141H87.6523V82.0781ZM84.4531 72.5273C84.4531 73.668 84.2988 74.7051 83.9902 75.6387C83.6855 76.5723 83.1699 77.4297 82.4434 78.2109C81.7168 78.9883 80.7383 79.668 79.5078 80.25L78.7227 79.0547C79.6328 78.625 80.3828 78.1465 80.9727 77.6191C81.5664 77.0918 82.0195 76.5078 82.332 75.8672C82.6484 75.2227 82.8477 74.5 82.9297 73.6992H79.2969V72.5273H84.4531Z" fill="white"/>
<defs>
<linearGradient id="border-gradient" x1="0%" y1="0%" x2="100%" y2="100%">
<stop offset="0%" stop-color="rgba(255,255,255,0.8)"/>
<stop offset="22%" stop-color="rgba(255,255,255,0.5)"/>
<stop offset="40%" stop-color="rgba(255,255,255,0.3)"/>
<stop offset="50%" stop-color="rgba(255,255,255,0.1)"/>
<stop offset="65%" stop-color="rgba(255,255,255,0.2)"/>
<stop offset="80%" stop-color="rgba(255,255,255,0.2)"/>
<stop offset="100%" stop-color="rgba(255,255,255,0.4)"/>
</linearGradient>
</defs>
<rect x="0.5" y="0.5" width="135" height="106" rx="9.5" ry="9.5" fill="none" stroke="url(#border-gradient)" stroke-width="1"/>
</svg>
