<svg width="136" height="107" viewBox="0 0 136 107" fill="none" xmlns="http://www.w3.org/2000/svg">
<rect width="136" height="107" rx="10" fill="white" fill-opacity="0.1"/>
<path d="M48 33C48 27.4772 52.4772 23 58 23H78C83.5228 23 88 27.4772 88 33V53C88 58.5228 83.5228 63 78 63H58C52.4772 63 48 58.5228 48 53V33Z" fill="#FE9A00"/>
<path d="M69.3018 37.4231C69.3018 37.2467 69.1802 37.112 69.0326 37.096L69.0319 37.0959C66.2155 36.7863 63.3764 36.7862 60.5601 37.0956C60.485 37.1043 60.4156 37.1422 60.3653 37.2019C60.3149 37.2617 60.2873 37.3391 60.2877 37.4192V43.682H69.3018V37.4231ZM63.507 47.7728C63.3363 47.7728 63.1726 47.8447 63.0518 47.9726C62.9311 48.1004 62.8632 48.2738 62.8632 48.4546C62.8632 48.6354 62.9311 48.8089 63.0518 48.9368C63.1726 49.0646 63.3363 49.1364 63.507 49.1364C63.6778 49.1364 63.8416 49.0646 63.9624 48.9368C64.0831 48.8089 64.1509 48.6354 64.1509 48.4546C64.1509 48.2738 64.0831 48.1004 63.9624 47.9726C63.8416 47.8447 63.6778 47.7728 63.507 47.7728ZM73.165 47.7728C72.9942 47.7728 72.8305 47.8447 72.7097 47.9726C72.589 48.1004 72.5211 48.2738 72.5211 48.4546C72.5211 48.6354 72.589 48.8089 72.7097 48.9368C72.8305 49.0646 72.9942 49.1364 73.165 49.1364C73.3357 49.1364 73.4996 49.0646 73.6203 48.9368C73.7411 48.8089 73.8088 48.6354 73.8088 48.4546C73.8088 48.2738 73.741 48.1004 73.6203 47.9726C73.4996 47.8447 73.3357 47.7728 73.165 47.7728ZM70.5895 47.7728H71.344C71.4391 47.4879 71.5935 47.2261 71.7992 47.0083C72.1614 46.6248 72.6527 46.4092 73.165 46.4092C73.6773 46.4092 74.1686 46.6248 74.5309 47.0083C74.7365 47.2261 74.8909 47.4879 74.986 47.7728H75.4185C75.6081 47.7728 75.7201 47.6176 75.7117 47.4756L75.7116 47.4742C75.5464 44.5997 74.6327 41.8299 73.0717 39.4717L73.0529 39.4446C72.9569 39.3102 72.8349 39.199 72.695 39.1184C72.5491 39.0343 72.3875 38.9857 72.2218 38.9758H70.5895V47.7728ZM60.2877 47.4319C60.2877 47.5223 60.3216 47.6091 60.382 47.673C60.4424 47.7369 60.5243 47.7728 60.6097 47.7728H61.686C61.7812 47.4879 61.9356 47.2261 62.1413 47.0083C62.5035 46.6248 62.9948 46.4092 63.507 46.4092C64.0193 46.4092 64.5107 46.6248 64.8729 47.0083C65.0786 47.2261 65.2329 47.4879 65.3281 47.7728H69.3018V45.0456H60.2877V47.4319ZM70.5895 37.6122H72.2395C72.2493 37.6122 72.2591 37.6125 72.2689 37.613C72.6336 37.6306 72.9899 37.7358 73.3106 37.9206C73.6312 38.1055 73.9081 38.3651 74.1201 38.6799C74.1211 38.6813 74.1221 38.6828 74.123 38.6842C75.8221 41.2493 76.8169 44.2627 76.9969 47.39L76.999 47.4361C77.0316 48.3989 76.2814 49.1364 75.4185 49.1364H74.986C74.8909 49.4213 74.7365 49.6832 74.5309 49.901C74.1686 50.2846 73.6773 50.5 73.165 50.5C72.6527 50.5 72.1614 50.2845 71.7992 49.901C71.5935 49.6832 71.4391 49.4213 71.344 49.1364H65.3281C65.2329 49.4213 65.0786 49.6832 64.8729 49.901C64.5107 50.2846 64.0193 50.5 63.507 50.5C62.9948 50.5 62.5035 50.2845 62.1413 49.901C61.9356 49.6832 61.7812 49.4213 61.686 49.1364H60.6097C60.1828 49.1364 59.7733 48.9569 59.4714 48.6372C59.1696 48.3176 59 47.884 59 47.4319V37.4231C58.9987 37.0068 59.1427 36.6046 59.4045 36.2939C59.6672 35.9822 60.0297 35.7848 60.4219 35.7398L60.4248 35.7395C63.3303 35.4202 66.2593 35.4202 69.1649 35.7395L69.1648 35.7396C69.9869 35.8294 70.5895 36.5671 70.5895 37.4231V37.6122Z" fill="white"/>
<path d="M52.168 73.3242H49.3789V74.2031H52.0625V75.3398H49.3789V76.2832C50.0117 76.2754 50.5605 76.2559 51.0254 76.2246C51.4902 76.1934 51.957 76.1367 52.4258 76.0547L52.5781 77.25C51.9883 77.3555 51.4102 77.4258 50.8438 77.4609C50.2773 77.4922 49.5547 77.5078 48.6758 77.5078H47.9492V72.1289H52.168V73.3242ZM56.7383 77.9297H55.3203V75.2227H54.3945V77.8477H53V71.6133H54.3945V74.0273H55.3203V71.4258H56.7383V77.9297ZM56.7383 82.0781H55.25V79.5703H49.3672V78.375H56.7383V82.0781ZM59.6562 74.7656H61.1094V72.3633H62.4922V79.5469H58.25V72.3633H59.6562V74.7656ZM61.1094 78.3516V75.9375H59.6562V78.3516H61.1094ZM67.1914 82.0781H65.7617V76.6992H64.8008V81.5859H63.3828V71.5664H64.8008V75.4805H65.7617V71.4141H67.1914V82.0781ZM72.2422 73.8281C72.2383 74.4805 72.3301 75.1133 72.5176 75.7266C72.7051 76.3359 72.9883 76.8828 73.3672 77.3672C73.7461 77.8516 74.2109 78.2266 74.7617 78.4922L73.8594 79.6875C73.3047 79.4141 72.8301 79.0293 72.4355 78.5332C72.0449 78.0371 71.7344 77.4551 71.5039 76.7871C71.2656 77.498 70.9355 78.1211 70.5137 78.6562C70.0957 79.1875 69.5938 79.5977 69.0078 79.8867L68.082 78.6797C68.6641 78.4141 69.1543 78.0293 69.5527 77.5254C69.9512 77.0176 70.248 76.4453 70.4434 75.8086C70.6426 75.168 70.7422 74.5078 70.7422 73.8281V72.2344H72.2422V73.8281ZM76.7305 75.5273H78.3008V76.793H76.7305V82.0781H75.2305V71.4141H76.7305V75.5273ZM87.6523 82.0781H86.1406V71.4141H87.6523V82.0781ZM84.4531 72.5273C84.4531 73.668 84.2988 74.7051 83.9902 75.6387C83.6855 76.5723 83.1699 77.4297 82.4434 78.2109C81.7168 78.9883 80.7383 79.668 79.5078 80.25L78.7227 79.0547C79.6328 78.625 80.3828 78.1465 80.9727 77.6191C81.5664 77.0918 82.0195 76.5078 82.332 75.8672C82.6484 75.2227 82.8477 74.5 82.9297 73.6992H79.2969V72.5273H84.4531Z" fill="white"/>
<defs>
<linearGradient id="border-gradient" x1="0%" y1="0%" x2="100%" y2="100%">
<stop offset="0%" stop-color="rgba(255,255,255,0.8)"/>
<stop offset="22%" stop-color="rgba(255,255,255,0.5)"/>
<stop offset="40%" stop-color="rgba(255,255,255,0.3)"/>
<stop offset="50%" stop-color="rgba(255,255,255,0.1)"/>
<stop offset="65%" stop-color="rgba(255,255,255,0.2)"/>
<stop offset="80%" stop-color="rgba(255,255,255,0.2)"/>
<stop offset="100%" stop-color="rgba(255,255,255,0.4)"/>
</linearGradient>
</defs>
<rect x="0.5" y="0.5" width="135" height="106" rx="9.5" ry="9.5" fill="none" stroke="url(#border-gradient)" stroke-width="1"/>
</svg>
