<svg width="136" height="107" viewBox="0 0 136 107" fill="none" xmlns="http://www.w3.org/2000/svg">
<rect width="136" height="107" rx="10" fill="white" fill-opacity="0.1"/>
<path d="M48 33C48 27.4772 52.4772 23 58 23H78C83.5228 23 88 27.4772 88 33V53C88 58.5228 83.5228 63 78 63H58C52.4772 63 48 58.5228 48 53V33Z" fill="#2B7FFF"/>
<path d="M67.6963 33.5546C67.8918 33.4813 68.1082 33.4813 68.3037 33.5546L75.2129 36.1454C75.5497 36.2719 75.7723 36.5943 75.7725 36.954V42.9999C75.7725 45.9763 73.8023 48.3545 72.0234 49.9111C71.1158 50.7052 70.212 51.3262 69.5371 51.748C69.1988 51.9594 68.9154 52.1223 68.7148 52.2333C68.6147 52.2887 68.5354 52.3319 68.4795 52.3613C68.4515 52.3759 68.4287 52.3875 68.4131 52.3954C68.4055 52.3993 68.399 52.402 68.3945 52.4042L68.3877 52.4081L68.3867 52.4091C68.1741 52.5154 67.9279 52.5288 67.707 52.4492L67.6133 52.4091L67.6123 52.4081L67.6104 52.4072C67.609 52.4065 67.6075 52.4053 67.6055 52.4042C67.601 52.402 67.5945 52.3993 67.5869 52.3954C67.5713 52.3875 67.5485 52.3759 67.5205 52.3613C67.4646 52.3319 67.3853 52.2887 67.2852 52.2333C67.0846 52.1223 66.8012 51.9594 66.4629 51.748C65.788 51.3262 64.8842 50.7052 63.9766 49.9111C62.1977 48.3545 60.2275 45.9763 60.2275 42.9999V36.954C60.2277 36.5943 60.4503 36.2719 60.7871 36.1454L67.6963 33.5546ZM61.9541 37.5527V42.9999C61.9541 45.2053 63.4386 47.145 65.1143 48.6113C65.9338 49.3284 66.7574 49.8953 67.3779 50.2831C67.6225 50.436 67.8345 50.5604 68 50.6542C68.1655 50.5604 68.3774 50.436 68.6221 50.2831C69.2426 49.8953 70.0662 49.3284 70.8857 48.6113C72.5614 47.145 74.0459 45.2053 74.0459 42.9999V37.5527L68 35.2861L61.9541 37.5527Z" fill="white"/>
<path d="M56.5391 82.0781H55.0273V71.4141H56.5391V82.0781ZM53.3398 72.5273C53.3398 73.668 53.1855 74.7051 52.877 75.6387C52.5723 76.5723 52.0566 77.4297 51.3301 78.2109C50.6035 78.9883 49.625 79.668 48.3945 80.25L47.6094 79.0547C48.5195 78.625 49.2695 78.1465 49.8594 77.6191C50.4531 77.0918 50.9062 76.5078 51.2188 75.8672C51.5352 75.2227 51.7344 74.5 51.8164 73.6992H48.1836V72.5273H53.3398ZM63.9219 72.8555C63.9219 73.4023 63.9082 73.916 63.8809 74.3965C63.8535 74.873 63.7852 75.4023 63.6758 75.9844L62.2109 75.8438C62.3594 75.0273 62.4414 74.2148 62.457 73.4062H58.4375V72.1875H63.9219V72.8555ZM61.2734 76.6934C62.4844 76.6387 63.5352 76.5469 64.4258 76.418L64.5078 77.4961C63.5273 77.6758 62.5059 77.7949 61.4434 77.8535C60.3809 77.9121 59.2109 77.9453 57.9336 77.9531L57.8047 76.7578C58.6523 76.7578 59.3125 76.752 59.7852 76.7402V74.6484H61.2734V76.6934ZM66.5352 74.6602H67.8242V75.9141H66.5352V79.3945H65V71.4141H66.5352V74.6602ZM66.8633 81.8906H59.375V78.6797H60.875V80.6953H66.8633V81.8906ZM72.2422 73.8281C72.2383 74.4805 72.3301 75.1133 72.5176 75.7266C72.7051 76.3359 72.9883 76.8828 73.3672 77.3672C73.7461 77.8516 74.2109 78.2266 74.7617 78.4922L73.8594 79.6875C73.3047 79.4141 72.8301 79.0293 72.4355 78.5332C72.0449 78.0371 71.7344 77.4551 71.5039 76.7871C71.2656 77.498 70.9355 78.1211 70.5137 78.6562C70.0957 79.1875 69.5938 79.5977 69.0078 79.8867L68.082 78.6797C68.6641 78.4141 69.1543 78.0293 69.5527 77.5254C69.9512 77.0176 70.248 76.4453 70.4434 75.8086C70.6426 75.168 70.7422 74.5078 70.7422 73.8281V72.2344H72.2422V73.8281ZM76.7305 75.5273H78.3008V76.793H76.7305V82.0781H75.2305V71.4141H76.7305V75.5273ZM85.0156 73.7109H82.8359C82.8477 74.082 82.9492 74.4414 83.1406 74.7891C83.3359 75.1367 83.623 75.4473 84.002 75.7207C84.3848 75.9941 84.8516 76.2031 85.4023 76.3477L84.7109 77.4961C84.1094 77.3398 83.5898 77.0996 83.1523 76.7754C82.7148 76.4512 82.3691 76.0625 82.1152 75.6094C81.8691 76.1172 81.5254 76.5547 81.084 76.9219C80.6465 77.2852 80.1172 77.5547 79.4961 77.7305L78.7812 76.5703C79.3281 76.418 79.7891 76.1953 80.1641 75.9023C80.5391 75.6094 80.8223 75.2734 81.0137 74.8945C81.2051 74.5156 81.3086 74.1211 81.3242 73.7109H79.1445V72.5273H81.3242V71.4258H82.8477V72.5273H85.0156V73.7109ZM87.6172 77.8594H86.1172V71.4258H87.6172V77.8594ZM83.9844 78.0234C84.7344 78.0234 85.3848 78.1035 85.9355 78.2637C86.4863 78.4238 86.9082 78.6562 87.2012 78.9609C87.498 79.2656 87.6484 79.6289 87.6523 80.0508C87.6484 80.4766 87.498 80.8418 87.2012 81.1465C86.9082 81.4512 86.4863 81.6816 85.9355 81.8379C85.3887 81.998 84.7383 82.0781 83.9844 82.0781C83.2266 82.0781 82.5723 81.998 82.0215 81.8379C81.4746 81.6816 81.0527 81.4512 80.7559 81.1465C80.4629 80.8418 80.3164 80.4766 80.3164 80.0508C80.3164 79.6289 80.4629 79.2656 80.7559 78.9609C81.0527 78.6562 81.4766 78.4238 82.0273 78.2637C82.5781 78.1035 83.2305 78.0234 83.9844 78.0234ZM83.9844 79.1836C83.2695 79.1836 82.7285 79.2578 82.3613 79.4062C81.998 79.5508 81.8164 79.7656 81.8164 80.0508C81.8164 80.3438 81.998 80.5664 82.3613 80.7188C82.7285 80.8672 83.2695 80.9414 83.9844 80.9414C84.6992 80.9414 85.2422 80.8672 85.6133 80.7188C85.9883 80.5664 86.1758 80.3438 86.1758 80.0508C86.1758 79.7656 85.9902 79.5508 85.6191 79.4062C85.248 79.2578 84.7031 79.1836 83.9844 79.1836Z" fill="white"/>
<defs>
<linearGradient id="border-gradient" x1="0%" y1="0%" x2="100%" y2="100%">
<stop offset="0%" stop-color="rgba(255,255,255,0.8)"/>
<stop offset="22%" stop-color="rgba(255,255,255,0.5)"/>
<stop offset="40%" stop-color="rgba(255,255,255,0.3)"/>
<stop offset="50%" stop-color="rgba(255,255,255,0.1)"/>
<stop offset="65%" stop-color="rgba(255,255,255,0.2)"/>
<stop offset="80%" stop-color="rgba(255,255,255,0.2)"/>
<stop offset="100%" stop-color="rgba(255,255,255,0.4)"/>
</linearGradient>
</defs>
<rect x="0.5" y="0.5" width="135" height="106" rx="9.5" ry="9.5" fill="none" stroke="url(#border-gradient)" stroke-width="1"/>
</svg>
