<svg width="136" height="107" viewBox="0 0 136 107" fill="none" xmlns="http://www.w3.org/2000/svg">
<rect width="136" height="107" rx="10" fill="white" fill-opacity="0.1"/>
<path d="M48 33C48 27.4772 52.4772 23 58 23H78C83.5228 23 88 27.4772 88 33V53C88 58.5228 83.5228 63 78 63H58C52.4772 63 48 58.5228 48 53V33Z" fill="#8E51FF"/>
<path d="M71.9375 33.8125C72.2856 33.8125 72.6194 33.9508 72.8656 34.1969C73.1117 34.4431 73.25 34.7769 73.25 35.125V50.875C73.25 51.2231 73.1117 51.5569 72.8656 51.8031C72.6194 52.0492 72.2856 52.1875 71.9375 52.1875H64.0625C63.7144 52.1875 63.3806 52.0492 63.1344 51.8031C62.8883 51.5569 62.75 51.2231 62.75 50.875V35.125C62.75 34.7769 62.8883 34.4431 63.1344 34.1969C63.3806 33.9508 63.7144 33.8125 64.0625 33.8125H71.9375ZM64.0625 32.5C63.3663 32.5 62.6986 32.7766 62.2063 33.2688C61.7141 33.7611 61.4375 34.4288 61.4375 35.125V50.875C61.4375 51.5712 61.7141 52.2389 62.2063 52.7312C62.6986 53.2234 63.3663 53.5 64.0625 53.5H71.9375C72.6337 53.5 73.3014 53.2234 73.7937 52.7312C74.2859 52.2389 74.5625 51.5712 74.5625 50.875V35.125C74.5625 34.4288 74.2859 33.7611 73.7937 33.2688C73.3014 32.7766 72.6337 32.5 71.9375 32.5H64.0625Z" fill="white"/>
<path d="M68 50.875C68.3481 50.875 68.6819 50.7367 68.9281 50.4906C69.1742 50.2444 69.3125 49.9106 69.3125 49.5625C69.3125 49.2144 69.1742 48.8806 68.9281 48.6344C68.6819 48.3883 68.3481 48.25 68 48.25C67.6519 48.25 67.3181 48.3883 67.0719 48.6344C66.8258 48.8806 66.6875 49.2144 66.6875 49.5625C66.6875 49.9106 66.8258 50.2444 67.0719 50.4906C67.3181 50.7367 67.6519 50.875 68 50.875Z" fill="white"/>
<path d="M46.9355 75.293H48.002V71.5664H49.4082V81.5859H48.002V76.4883H46.9355V79.3945H42.6934V72.5156H46.9355V75.293ZM44.0879 78.2227H45.541V73.6992H44.0879V78.2227ZM51.6348 82.0781H50.2051V71.4141H51.6348V82.0781ZM61.6895 79.207H60.1895V71.4258H61.6895V79.207ZM61.9707 81.8906H54.541V78.457H56.0527V80.6953H61.9707V81.8906ZM56.8496 73.043C56.8457 73.5273 56.9316 73.9902 57.1074 74.4316C57.2871 74.873 57.5625 75.2656 57.9336 75.6094C58.3086 75.9531 58.7793 76.2148 59.3457 76.3945L58.584 77.5664C57.998 77.3711 57.4941 77.084 57.0723 76.7051C56.6504 76.3262 56.3184 75.877 56.0762 75.3574C55.8301 75.9199 55.4902 76.4082 55.0566 76.8223C54.623 77.2363 54.1035 77.5469 53.498 77.7539L52.7246 76.5703C53.2988 76.3789 53.7773 76.0996 54.1602 75.7324C54.5469 75.3652 54.832 74.9512 55.0156 74.4902C55.1992 74.0254 55.291 73.543 55.291 73.043V72.0117H56.8496V73.043ZM72.1426 82.1016H70.6426V76.3477H68.7324V75.1289H70.6426V71.4141H72.1426V82.1016ZM67.1621 74.0859C67.1621 74.7305 67.2598 75.3574 67.4551 75.9668C67.6543 76.5723 67.9531 77.1152 68.3516 77.5957C68.7539 78.0762 69.2441 78.4414 69.8223 78.6914L68.9434 79.875C68.3418 79.5938 67.8281 79.1895 67.4023 78.6621C66.9766 78.1348 66.6465 77.5195 66.4121 76.8164C66.1738 77.5703 65.8379 78.2324 65.4043 78.8027C64.9746 79.3691 64.459 79.8008 63.8574 80.0977L62.9668 78.9141C63.5449 78.6484 64.0332 78.2656 64.4316 77.7656C64.8301 77.2617 65.1289 76.6934 65.3281 76.0605C65.5273 75.4238 65.627 74.7656 65.627 74.0859V73.6406H63.4121V72.4453H69.377V73.6406H67.1621V74.0859ZM77.4277 73.8281C77.4238 74.4805 77.5156 75.1133 77.7031 75.7266C77.8906 76.3359 78.1738 76.8828 78.5527 77.3672C78.9316 77.8516 79.3965 78.2266 79.9473 78.4922L79.0449 79.6875C78.4902 79.4141 78.0156 79.0293 77.6211 78.5332C77.2305 78.0371 76.9199 77.4551 76.6895 76.7871C76.4512 77.498 76.1211 78.1211 75.6992 78.6562C75.2812 79.1875 74.7793 79.5977 74.1934 79.8867L73.2676 78.6797C73.8496 78.4141 74.3398 78.0293 74.7383 77.5254C75.1367 77.0176 75.4336 76.4453 75.6289 75.8086C75.8281 75.168 75.9277 74.5078 75.9277 73.8281V72.2344H77.4277V73.8281ZM81.916 75.5273H83.4863V76.793H81.916V82.0781H80.416V71.4141H81.916V75.5273ZM92.8379 82.0781H91.3262V71.4141H92.8379V82.0781ZM89.6387 72.5273C89.6387 73.668 89.4844 74.7051 89.1758 75.6387C88.8711 76.5723 88.3555 77.4297 87.6289 78.2109C86.9023 78.9883 85.9238 79.668 84.6934 80.25L83.9082 79.0547C84.8184 78.625 85.5684 78.1465 86.1582 77.6191C86.752 77.0918 87.2051 76.5078 87.5176 75.8672C87.834 75.2227 88.0332 74.5 88.1152 73.6992H84.4824V72.5273H89.6387Z" fill="white"/>
<defs>
<linearGradient id="border-gradient" x1="0%" y1="0%" x2="100%" y2="100%">
<stop offset="0%" stop-color="rgba(255,255,255,0.8)"/>
<stop offset="22%" stop-color="rgba(255,255,255,0.5)"/>
<stop offset="40%" stop-color="rgba(255,255,255,0.3)"/>
<stop offset="50%" stop-color="rgba(255,255,255,0.1)"/>
<stop offset="65%" stop-color="rgba(255,255,255,0.2)"/>
<stop offset="80%" stop-color="rgba(255,255,255,0.2)"/>
<stop offset="100%" stop-color="rgba(255,255,255,0.4)"/>
</linearGradient>
</defs>
<rect x="0.5" y="0.5" width="135" height="106" rx="9.5" ry="9.5" fill="none" stroke="url(#border-gradient)" stroke-width="1"/>
</svg>
