<svg width="136" height="107" viewBox="0 0 136 107" fill="none" xmlns="http://www.w3.org/2000/svg">
<rect width="136" height="107" rx="10" fill="white" fill-opacity="0.1"/>
<path d="M48 33C48 27.4772 52.4772 23 58 23H78C83.5228 23 88 27.4772 88 33V53C88 58.5228 83.5228 63 78 63H58C52.4772 63 48 58.5228 48 53V33Z" fill="#FF2056"/>
<path d="M64.3458 45.1536C66.4601 45.1537 68.2837 45.5339 69.5983 46.4447C70.9603 47.3888 71.6915 48.8446 71.6915 50.7445C71.691 51.1611 71.362 51.4995 70.957 51.5C70.5519 51.4997 70.2229 51.1611 70.2224 50.7445C70.2224 49.2976 69.6959 48.334 68.7776 47.6975C67.8117 47.0283 66.329 46.6647 64.3458 46.6646C62.3627 46.6646 60.8799 47.0284 59.9139 47.6975C58.9958 48.334 58.4692 49.2976 58.4692 50.7445C58.4686 51.1611 58.1396 51.4995 57.7346 51.5C57.3295 51.4997 57.0005 51.1611 57 50.7445C57 48.8449 57.7303 47.3888 59.0918 46.4447C60.4064 45.5338 62.2313 45.1536 64.3458 45.1536ZM71.6542 45.1536C73.7688 45.1536 75.592 45.5338 76.9067 46.4447C78.2691 47.3888 79 48.8443 79 50.7445C78.9996 51.1612 78.6708 51.5 78.2654 51.5C77.8604 51.4997 77.5314 51.1611 77.5308 50.7445C77.5308 49.2973 77.0047 48.334 76.0861 47.6975C75.3254 47.1704 74.2443 46.8359 72.8509 46.7162C72.5081 46.1414 72.0832 45.6173 71.5739 45.1551C71.6006 45.1549 71.6274 45.1536 71.6542 45.1536ZM64.3472 34.5C66.9022 34.5009 68.9739 36.6324 68.9742 39.2602C68.9739 41.888 66.9022 44.018 64.3472 44.0189C61.7915 44.0189 59.7191 41.8885 59.7188 39.2602C59.7191 36.6318 61.7915 34.5 64.3472 34.5ZM71.6557 34.5C74.211 34.5005 76.2824 36.6321 76.2827 39.2602C76.2824 41.8882 74.211 44.0184 71.6557 44.0189C70.8868 44.0189 70.1632 43.8229 69.5251 43.4818C69.8306 43.0859 70.0953 42.6555 70.3099 42.1951C70.7186 42.3935 71.1738 42.5079 71.6557 42.5079C73.3996 42.5074 74.8132 41.0537 74.8135 39.2602C74.8132 37.4666 73.3996 36.0115 71.6557 36.011C71.174 36.011 70.7185 36.1239 70.3099 36.3223C70.0952 35.8621 69.8307 35.4313 69.5251 35.0356C70.1631 34.6945 70.8871 34.5 71.6557 34.5ZM64.3472 36.011C62.6029 36.011 61.1883 37.4663 61.188 39.2602C61.1883 41.054 62.6029 42.5079 64.3472 42.5079C66.0908 42.507 67.5047 41.0535 67.505 39.2602C67.5047 37.4668 66.0908 36.0119 64.3472 36.011Z" fill="white"/>
<path d="M55.9883 75.5039H57.5V76.7344H55.9883V82.0547H54.4883V71.4141H55.9883V75.5039ZM53.1406 72.5039C53.1328 74.2031 52.75 75.7051 51.9922 77.0098C51.2383 78.3105 50.0078 79.3789 48.3008 80.2148L47.457 79.0664C48.7266 78.4297 49.7012 77.6758 50.3809 76.8047C51.0645 75.9336 51.4766 74.9062 51.6172 73.7227H48.0664V72.5039H53.1406ZM66.793 72.9844H63.875C63.957 73.2539 64.1367 73.5078 64.4141 73.7461C64.6953 73.9844 65.0762 74.1895 65.5566 74.3613C66.0371 74.5332 66.6055 74.6484 67.2617 74.707L66.7227 75.8789C65.7422 75.7812 64.9141 75.5566 64.2383 75.2051C63.5664 74.8496 63.0859 74.4043 62.7969 73.8691C62.5078 74.4043 62.0312 74.8496 61.3672 75.2051C60.7031 75.5566 59.8828 75.7812 58.9062 75.8789L58.3789 74.707C59.0273 74.6484 59.5879 74.5332 60.0605 74.3613C60.5371 74.1895 60.9141 73.9844 61.1914 73.7461C61.4688 73.5078 61.6484 73.2539 61.7305 72.9844H58.8359V71.8008H66.793V72.9844ZM67.6719 77.8008H57.9453V76.6055H62.0586V75.2109H63.5352V76.6055H67.6719V77.8008ZM66.4883 82.0781H65V79.7578H59.0234V78.5625H66.4883V82.0781ZM72.2422 73.8281C72.2383 74.4805 72.3301 75.1133 72.5176 75.7266C72.7051 76.3359 72.9883 76.8828 73.3672 77.3672C73.7461 77.8516 74.2109 78.2266 74.7617 78.4922L73.8594 79.6875C73.3047 79.4141 72.8301 79.0293 72.4355 78.5332C72.0449 78.0371 71.7344 77.4551 71.5039 76.7871C71.2656 77.498 70.9355 78.1211 70.5137 78.6562C70.0957 79.1875 69.5938 79.5977 69.0078 79.8867L68.082 78.6797C68.6641 78.4141 69.1543 78.0293 69.5527 77.5254C69.9512 77.0176 70.248 76.4453 70.4434 75.8086C70.6426 75.168 70.7422 74.5078 70.7422 73.8281V72.2344H72.2422V73.8281ZM76.7305 75.5273H78.3008V76.793H76.7305V82.0781H75.2305V71.4141H76.7305V75.5273ZM87.6523 82.0781H86.1406V71.4141H87.6523V82.0781ZM84.4531 72.5273C84.4531 73.668 84.2988 74.7051 83.9902 75.6387C83.6855 76.5723 83.1699 77.4297 82.4434 78.2109C81.7168 78.9883 80.7383 79.668 79.5078 80.25L78.7227 79.0547C79.6328 78.625 80.3828 78.1465 80.9727 77.6191C81.5664 77.0918 82.0195 76.5078 82.332 75.8672C82.6484 75.2227 82.8477 74.5 82.9297 73.6992H79.2969V72.5273H84.4531Z" fill="white"/>
<defs>
<linearGradient id="border-gradient" x1="0%" y1="0%" x2="100%" y2="100%">
<stop offset="0%" stop-color="rgba(255,255,255,0.8)"/>
<stop offset="22%" stop-color="rgba(255,255,255,0.5)"/>
<stop offset="40%" stop-color="rgba(255,255,255,0.3)"/>
<stop offset="50%" stop-color="rgba(255,255,255,0.1)"/>
<stop offset="65%" stop-color="rgba(255,255,255,0.2)"/>
<stop offset="80%" stop-color="rgba(255,255,255,0.2)"/>
<stop offset="100%" stop-color="rgba(255,255,255,0.4)"/>
</linearGradient>
</defs>
<rect x="0.5" y="0.5" width="135" height="106" rx="9.5" ry="9.5" fill="none" stroke="url(#border-gradient)" stroke-width="1"/>
</svg>
