<svg width="410" height="73" viewBox="0 0 410 73" fill="none" xmlns="http://www.w3.org/2000/svg">
<path d="M72.0351 46.5324C70.5311 46.5324 69.3183 45.3195 69.3183 43.8155V18.0254L37.3086 5.63491L3.70776 18.6949C2.31055 19.2383 0.728982 18.5494 0.185623 17.1425C-0.357735 15.7452 0.331171 14.1637 1.73808 13.6203L36.319 0.181928C36.9496 -0.0606427 37.6579 -0.0606427 38.2886 0.181928L73.0151 13.6203C74.063 14.0278 74.7519 15.037 74.7519 16.1528V43.8059C74.7519 45.3098 73.539 46.5227 72.0351 46.5227V46.5324Z" fill="url(#paint0_linear_86_1508)"/>
<path d="M72.035 58.3411C73.8998 58.3411 75.4116 56.8294 75.4116 54.9645C75.4116 53.0997 73.8998 51.5879 72.035 51.5879C70.1702 51.5879 68.6584 53.0997 68.6584 54.9645C68.6584 56.8294 70.1702 58.3411 72.035 58.3411Z" fill="url(#paint1_linear_86_1508)"/>
<path d="M37.3862 72.2258C36.9689 72.2258 36.5517 72.1288 36.1733 71.9347C35.2515 71.469 13.4978 60.398 13.4978 43.0396V24.517C13.4978 23.3817 14.1964 22.3727 15.2637 21.9748L36.4353 14.0379C37.0466 13.8051 37.7258 13.8051 38.3467 14.0379L59.5183 21.9748C60.5759 22.3727 61.2842 23.3914 61.2842 24.517V43.0396C61.2842 60.398 39.5402 71.469 38.6087 71.9347C38.2303 72.1288 37.8131 72.2258 37.3959 72.2258H37.3862ZM18.9314 26.3993V43.0396C18.9314 54.9741 33.0878 63.959 37.3862 66.4041C41.6748 63.959 55.8409 54.9741 55.8409 43.0396V26.3993L37.3862 19.4812L18.9314 26.3993Z" fill="url(#paint2_linear_86_1508)"/>
<path d="M37.3763 54.9354C33.1556 54.9354 30.2932 52.7329 29.255 51.782C28.4206 51.0252 28.3624 49.7347 29.1289 48.9003C29.8954 48.0756 31.1762 48.0076 32.0106 48.7742C32.6995 49.4048 34.5916 50.8602 37.3763 50.8602C40.161 50.8602 42.0628 49.4048 42.7419 48.7742C43.5764 48.0173 44.8572 48.0658 45.6237 48.9003C46.3805 49.725 46.332 51.0155 45.4975 51.782C44.4593 52.7329 41.597 54.9354 37.3763 54.9354Z" fill="url(#paint3_linear_86_1508)"/>
<path d="M141.4 9.65234H133.561V63.4545H141.4V9.65234Z" fill="#4376DB"/>
<path d="M124.41 43.6798C125.245 41.0115 125.72 37.3244 125.72 22.4791H117.939C117.939 28.2426 117.822 34.5397 117.706 40.41C117.648 42.7871 116.396 44.3299 114.203 44.3299C112.01 44.3299 110.759 42.7871 110.7 40.41C110.526 34.2972 110.468 27.1074 110.468 20.1019H130.067V13.2129H97.883V20.1019H102.696C102.696 37.7417 103.171 41.6616 103.889 44.0388H97V50.9278H112.146C118.501 50.9278 125.808 50.4524 131.804 49.4433L131.513 42.855C129.194 43.3887 126.526 43.6313 124.449 43.6895L124.41 43.6798Z" fill="#4376DB"/>
<path d="M176.825 37.8579L182.763 32.7542C178.727 28.1842 174.506 24.8561 169.286 21.887C170.479 18.5007 171.071 14.8816 170.945 11.0781C169.499 10.36 167.811 9.62264 165.89 8.96285C164.473 8.4777 163.134 8.09929 161.892 7.80821C161.33 7.67237 160.767 7.9829 160.544 8.51655C159.835 10.2048 159.137 11.8931 158.429 13.5717C158.225 14.0568 158.37 14.6196 158.778 14.9495C159.981 15.9101 161.184 16.8707 162.378 17.8312C161.514 21.7221 159.7 25.2345 156.682 28.2424L153.005 25.3704C152.587 25.0502 152.005 25.0404 151.588 25.3509L146.863 28.8634C146.436 29.1836 146.261 29.756 146.475 30.2411C147.018 31.5025 147.785 32.9774 148.852 34.5104C150.375 36.6935 152.015 38.2654 153.305 39.3327C158.885 36.4218 163.28 32.5601 166.249 27.9901C170.344 30.6584 173.672 33.8118 176.815 37.8482L176.825 37.8579Z" fill="#4376DB"/>
<path d="M195.183 9.65234H187.343V39.9931H195.183V9.65234Z" fill="#4376DB"/>
<path d="M179.445 39.7598C171.663 39.7598 164.9 44.3881 164.9 52.1115C164.9 59.835 171.673 64.4632 179.445 64.4632C187.217 64.4632 193.989 59.835 193.989 52.1115C193.989 44.3881 187.217 39.7598 179.445 39.7598ZM179.445 57.7488C175.7 57.7488 172.731 55.4396 172.731 52.1115C172.731 48.7834 175.7 46.4742 179.445 46.4742C183.19 46.4742 186.159 48.7931 186.159 52.1115C186.159 55.4299 183.19 57.7488 179.445 57.7488Z" fill="#4376DB"/>
<path d="M233.344 25.3215C233.344 17.1906 227.348 11.1846 218.499 11.1846C209.65 11.1846 203.654 17.1809 203.654 25.3215C203.654 33.4622 209.65 39.4586 218.499 39.4586C227.348 39.4586 233.344 33.4622 233.344 25.3215ZM211.493 25.3215C211.493 21.0426 214.162 17.8407 218.499 17.8407C222.836 17.8407 225.504 21.0523 225.504 25.3215C225.504 29.5908 222.836 32.8024 218.499 32.8024C214.162 32.8024 211.493 29.5908 211.493 25.3215Z" fill="#B2B2B2"/>
<path d="M233.053 55.7307C229.842 55.7307 227.057 55.6143 224.738 55.4397C222.002 55.1971 220.702 54.3724 220.168 52.296C219.634 50.2196 219.392 47.0661 219.45 44.4561L211.61 44.5725C211.426 48.7253 211.726 53.0042 212.794 56.148C214.104 59.8932 217.189 61.7271 222.594 62.0861C226.096 62.3189 229.716 62.4451 233.752 62.4451C238.031 62.4451 242.717 62.3287 248.064 62.0279L247.588 55.2553C242.067 55.5561 237.196 55.7307 233.044 55.7307H233.053Z" fill="#B2B2B2"/>
<path d="M246.588 9.65234H238.749V48.6092H246.588V29.4267H253.836V22.4212H246.588V9.65234Z" fill="#B2B2B2"/>
<path d="M301.565 9.65234H293.725V39.702H301.565V9.65234Z" fill="#B2B2B2"/>
<path d="M272.282 28.1749C276.502 31.0275 280.063 34.2295 283.207 38.1494L289.145 33.0457C285.051 28.5921 280.713 25.264 275.425 22.1785C276.793 18.6758 277.444 14.9305 277.327 11.0688L269.371 10.8359C269.672 19.976 265.81 28.4757 254.758 33.5212L259.687 39.0421C265.034 36.2477 269.303 32.5121 272.272 28.1749H272.282Z" fill="#B2B2B2"/>
<path d="M300.139 42.0791H265.577C265.286 45.4654 265.043 49.919 265.102 54.3144C265.16 60.3689 267.712 62.2707 273.417 62.6879C276.085 62.8626 279.239 62.9887 282.741 62.9887C288.262 62.9887 294.676 62.7461 301.565 62.2707V43.5054C301.565 42.5546 301.089 42.0791 300.139 42.0791ZM293.725 56.1482C290.756 56.3908 287.428 56.5072 284.168 56.5072C280.908 56.5072 277.754 56.3908 274.902 56.1482C273.834 56.0318 273.058 55.4981 273 54.3629C272.883 52.3447 273 50.0257 273.174 48.5994H293.715V56.1385L293.725 56.1482Z" fill="#B2B2B2"/>
<path d="M339.726 34.0547H331.77V50.6271H326.783V34.0547H318.826V50.6271H308.318V57.5162H358.433V50.6271H339.726V34.0547Z" fill="#B2B2B2"/>
<path d="M341.987 44.097L349.769 44.6889C351.069 36.3153 351.787 25.9818 351.787 18.5592V16.182C351.787 13.9794 350.778 13.2129 348.575 13.2129H314.673V20.1019H343.714C343.714 26.8163 343.18 36.3153 341.987 44.097Z" fill="#B2B2B2"/>
<path d="M407.947 9.65234H400.107V36.4903H407.947V9.65234Z" fill="#B2B2B2"/>
<path d="M408.655 56.4389C403.018 57.089 397.429 57.4481 392.092 57.4481C388.172 57.4481 384.369 57.2055 380.866 56.8562C379.857 56.7397 379.498 56.2643 379.498 55.6627C379.498 55.1291 379.498 54.3528 379.556 53.761L407.937 53.6445V40.2838C407.937 39.3329 407.461 38.8574 406.511 38.8574H371.716V45.0284H399.864V48.0557L371.716 48.1722C371.474 50.5494 371.357 54.2267 371.474 56.4875C371.716 60.5821 373.967 62.6003 378.12 62.9593C382.457 63.3765 386.853 63.5511 391.19 63.5511C397.186 63.5511 403.124 63.1922 409.121 62.4256L408.645 56.4292L408.655 56.4389Z" fill="#B2B2B2"/>
<path d="M379.139 26.8062C382.884 29.4163 386.503 32.7443 389.773 36.6643L395.536 31.5024C391.199 26.8742 387.105 23.6625 382.234 20.7517C383.243 17.7826 383.777 14.4545 383.718 10.8353L375.762 10.5928C376.005 20.0918 371.726 27.2817 361.15 31.9681L365.904 37.5473C371.609 34.7528 376.121 31.1919 379.148 26.7965L379.139 26.8062Z" fill="#B2B2B2"/>
<defs>
<linearGradient id="paint0_linear_86_1508" x1="17.4761" y1="-1.6131" x2="84.4935" y2="58.2437" gradientUnits="userSpaceOnUse">
<stop stop-color="#60A5FA"/>
<stop offset="1" stop-color="#2849BE"/>
</linearGradient>
<linearGradient id="paint1_linear_86_1508" x1="13.5755" y1="2.75339" x2="80.5932" y2="62.61" gradientUnits="userSpaceOnUse">
<stop stop-color="#60A5FA"/>
<stop offset="1" stop-color="#2849BE"/>
</linearGradient>
<linearGradient id="paint2_linear_86_1508" x1="6.2983" y1="10.8942" x2="73.3157" y2="70.751" gradientUnits="userSpaceOnUse">
<stop stop-color="#60A5FA"/>
<stop offset="1" stop-color="#2849BE"/>
</linearGradient>
<linearGradient id="paint3_linear_86_1508" x1="0.524948" y1="17.3662" x2="67.5422" y2="77.223" gradientUnits="userSpaceOnUse">
<stop stop-color="#60A5FA"/>
<stop offset="1" stop-color="#2849BE"/>
</linearGradient>
</defs>
</svg>
