<svg width="96" height="96" viewBox="0 0 96 96" fill="none" xmlns="http://www.w3.org/2000/svg">
<path d="M0 24C0 10.7452 10.7452 0 24 0H72C85.2548 0 96 10.7452 96 24V72C96 85.2548 85.2548 96 72 96H24C10.7452 96 0 85.2548 0 72V24Z" fill="url(#paint0_linear_96_348)"/>
<path d="M62.6663 49.8335C62.6663 59.0002 56.2497 63.5835 48.623 66.2418C48.2236 66.3772 47.7898 66.3707 47.3947 66.2235C39.7497 63.5835 33.333 59.0002 33.333 49.8335V37.0002C33.333 36.5139 33.5262 36.0476 33.87 35.7038C34.2138 35.36 34.6801 35.1668 35.1663 35.1668C38.833 35.1668 43.4163 32.9668 46.6063 30.1802C46.9947 29.8483 47.4888 29.666 47.9997 29.666C48.5105 29.666 49.0046 29.8483 49.393 30.1802C52.6013 32.9852 57.1663 35.1668 60.833 35.1668C61.3192 35.1668 61.7856 35.36 62.1294 35.7038C62.4732 36.0476 62.6663 36.5139 62.6663 37.0002V49.8335Z" stroke="white" stroke-width="3.66667" stroke-linecap="round" stroke-linejoin="round"/>
<defs>
<linearGradient id="paint0_linear_96_348" x1="0" y1="0" x2="96" y2="96" gradientUnits="userSpaceOnUse">
<stop stop-color="#2849BE"/>
<stop offset="1" stop-color="#2D1F4E"/>
</linearGradient>
</defs>
</svg>
