<svg width="155" height="123" viewBox="0 0 155 123" fill="none" xmlns="http://www.w3.org/2000/svg">
<path d="M22.048 95.7461H18.1621V122.502H22.048V95.7461Z" fill="#4376DB"/>
<path d="M13.6319 112.66C14.0475 111.328 14.276 109.497 14.276 102.112H10.4109C10.4109 104.983 10.3486 108.103 10.2862 111.037C10.2655 112.223 9.64204 112.993 8.54069 112.993C7.43934 112.993 6.83671 112.223 6.79515 111.037C6.71203 107.999 6.67047 104.421 6.67047 100.947H16.3956V97.5137H0.436386V100.947H2.82612C2.82612 109.705 3.0547 111.661 3.40796 112.847H0V116.28H7.52246C10.6811 116.28 14.2968 116.051 17.2892 115.552L17.1437 112.265C16.0008 112.535 14.6709 112.639 13.6319 112.681V112.66Z" fill="#4376DB"/>
<path d="M39.6488 109.768L42.5996 107.23C40.5839 104.962 38.5059 103.298 35.9083 101.821C36.4902 100.135 36.8019 98.3461 36.7395 96.4529C36.0122 96.0992 35.181 95.7247 34.2251 95.3918C33.5186 95.1421 32.8536 94.9549 32.2302 94.8093C31.9601 94.7468 31.6692 94.8925 31.5653 95.163C31.212 95.9952 30.8587 96.8482 30.5055 97.6804C30.4016 97.93 30.4847 98.2005 30.6717 98.3669C31.2743 98.8455 31.8562 99.324 32.4588 99.8025C32.0224 101.737 31.1289 103.485 29.6327 104.983L27.804 103.547C27.5962 103.381 27.3053 103.381 27.0975 103.547L24.7493 105.295C24.5415 105.461 24.4584 105.732 24.5623 105.982C24.8325 106.606 25.2065 107.334 25.7468 108.104C26.4949 109.186 27.3261 109.976 27.9495 110.496C30.7133 109.04 32.8952 107.126 34.3706 104.858C36.4071 106.19 38.0487 107.75 39.628 109.768H39.6488Z" fill="#4376DB"/>
<path d="M48.7507 95.7461H44.8647V110.83H48.7507V95.7461Z" fill="#4376DB"/>
<path d="M40.9581 110.705C37.093 110.705 33.7266 113.014 33.7266 116.843C33.7266 120.671 37.093 122.98 40.9581 122.98C44.8232 122.98 48.1896 120.671 48.1896 116.843C48.1896 113.014 44.8232 110.705 40.9581 110.705ZM40.9581 119.651C39.1087 119.651 37.6333 118.507 37.6333 116.843C37.6333 115.178 39.1087 114.034 40.9581 114.034C42.8075 114.034 44.2829 115.178 44.2829 116.843C44.2829 118.507 42.8075 119.651 40.9581 119.651Z" fill="#4376DB"/>
<path d="M67.7022 103.548C67.7022 99.5116 64.7307 96.5156 60.3252 96.5156C55.9198 96.5156 52.9482 99.4908 52.9482 103.548C52.9482 107.605 55.9198 110.58 60.3252 110.58C64.7307 110.58 67.7022 107.605 67.7022 103.548ZM56.8549 103.548C56.8549 101.426 58.1849 99.8236 60.3252 99.8236C62.4656 99.8236 63.7955 101.426 63.7955 103.548C63.7955 105.67 62.4656 107.272 60.3252 107.272C58.1849 107.272 56.8549 105.67 56.8549 103.548Z" fill="#B2B2B2"/>
<path d="M67.5569 118.651C65.9568 118.651 64.5853 118.589 63.4216 118.506C62.0709 118.381 61.4267 117.965 61.1565 116.945C60.8864 115.926 60.7825 114.345 60.8033 113.055L56.9174 113.117C56.8342 115.177 56.9797 117.299 57.4992 118.88C58.1434 120.732 59.6811 121.647 62.3618 121.834C64.1073 121.959 65.8944 122.001 67.9101 122.001C70.0297 122.001 72.3571 121.938 75.017 121.793L74.7884 118.422C72.0454 118.568 69.6349 118.651 67.5569 118.651Z" fill="#B2B2B2"/>
<path d="M74.2892 95.7461H70.4033V115.116H74.2892V105.587H77.8842V102.092H74.2892V95.7461Z" fill="#B2B2B2"/>
<path d="M101.574 95.7461H97.688V110.684H101.574V95.7461Z" fill="#B2B2B2"/>
<path d="M87.0487 104.962C89.1475 106.377 90.9139 107.979 92.4724 109.914L95.4232 107.376C93.3867 105.17 91.2463 103.506 88.6072 101.966C89.293 100.219 89.6047 98.367 89.5424 96.453L85.5941 96.3281C85.7396 100.864 83.8278 105.087 78.3418 107.605L80.7939 110.351C83.4537 108.957 85.5733 107.105 87.0487 104.941V104.962Z" fill="#B2B2B2"/>
<path d="M100.867 111.869H83.703C83.5575 113.554 83.4329 115.76 83.4744 117.944C83.4952 120.961 84.7628 121.897 87.6097 122.105C88.9396 122.188 90.4981 122.251 92.2437 122.251C94.9867 122.251 98.1661 122.126 101.595 121.897V112.577C101.595 112.098 101.366 111.869 100.888 111.869H100.867ZM97.6881 118.86C96.2127 118.985 94.5711 119.047 92.9502 119.047C91.3294 119.047 89.7708 118.985 88.3578 118.86C87.8175 118.797 87.4434 118.527 87.4227 117.965C87.3603 116.966 87.4227 115.801 87.5058 115.094H97.7089V118.839L97.6881 118.86Z" fill="#B2B2B2"/>
<path d="M120.526 107.875H116.577V116.114H114.105V107.875H110.156V116.114H104.94V119.547H129.814V116.114H120.526V107.875Z" fill="#B2B2B2"/>
<path d="M121.648 112.868L125.513 113.159C126.157 108.998 126.51 103.859 126.51 100.177V98.9908C126.51 97.8882 126.011 97.5137 124.91 97.5137H108.078V100.947H122.5C122.5 104.275 122.229 108.998 121.648 112.868Z" fill="#B2B2B2"/>
<path d="M154.398 95.7461H150.512V109.082H154.398V95.7461Z" fill="#B2B2B2"/>
<path d="M154.751 119.006C151.945 119.339 149.181 119.506 146.522 119.506C144.568 119.506 142.698 119.381 140.952 119.214C140.454 119.152 140.267 118.923 140.267 118.632C140.267 118.361 140.267 117.987 140.287 117.696L154.377 117.633V110.996C154.377 110.518 154.148 110.289 153.67 110.289H136.402V113.368H150.387V114.866L136.402 114.929C136.277 116.115 136.215 117.945 136.277 119.069C136.402 121.108 137.524 122.106 139.581 122.294C141.742 122.502 143.924 122.585 146.064 122.585C149.036 122.585 151.987 122.398 154.979 122.023L154.751 119.048V119.006Z" fill="#B2B2B2"/>
<path d="M140.101 104.276C141.95 105.566 143.758 107.231 145.379 109.186L148.246 106.627C146.085 104.318 144.07 102.737 141.638 101.28C142.137 99.8031 142.407 98.1595 142.366 96.3494L138.417 96.2246C138.542 100.947 136.422 104.526 131.165 106.856L133.534 109.623C136.36 108.229 138.604 106.461 140.101 104.276Z" fill="#B2B2B2"/>
<path d="M111.611 50.2914C110.114 50.2914 108.909 49.0847 108.909 47.5868V21.934L77.1154 9.61739L43.7215 22.5998C42.3293 23.1407 40.7707 22.4542 40.2305 21.0602C39.6902 19.6663 40.3759 18.1059 41.7682 17.565L76.118 4.18725C76.7414 3.93758 77.4479 3.93758 78.0713 4.18725L112.587 17.565C113.626 17.9603 114.312 18.9797 114.312 20.0824V47.5868C114.312 49.0847 113.107 50.2914 111.611 50.2914Z" fill="url(#paint0_linear_86_1720)"/>
<path d="M111.611 62.0254C113.458 62.0254 114.956 60.5257 114.956 58.6758C114.956 56.8259 113.458 55.3262 111.611 55.3262C109.763 55.3262 108.265 56.8259 108.265 58.6758C108.265 60.5257 109.763 62.0254 111.611 62.0254Z" fill="url(#paint1_linear_86_1720)"/>
<path d="M77.1778 75.8392C76.7622 75.8392 76.3466 75.7352 75.9726 75.548C75.0583 75.0903 53.4468 64.0635 53.4468 46.7953V28.3619C53.4468 27.2384 54.1533 26.219 55.1923 25.8237L76.222 17.9177C76.8246 17.6889 77.5103 17.6889 78.113 17.9177L99.1426 25.8237C100.202 26.219 100.888 27.2384 100.888 28.3619V46.7953C100.888 64.0635 79.2766 75.0903 78.3623 75.548C77.9883 75.7352 77.5727 75.8392 77.1571 75.8392H77.1778ZM58.8289 30.2552V46.8161C58.8289 58.6958 72.8971 67.6212 77.1571 70.0554C81.417 67.6212 95.4853 58.675 95.4853 46.8161V30.2552L77.1571 23.3687L58.8289 30.2552Z" fill="url(#paint2_linear_86_1720)"/>
<path d="M77.1779 58.656C72.9803 58.656 70.1334 56.4715 69.1152 55.5144C68.284 54.7655 68.2424 53.4755 68.9905 52.6433C69.7386 51.8111 71.027 51.7695 71.8582 52.5185C72.544 53.1427 74.4142 54.599 77.1987 54.599C79.9833 54.599 81.8535 53.1427 82.5393 52.5185C83.3705 51.7695 84.6381 51.8111 85.4069 52.6433C86.155 53.4755 86.1135 54.7447 85.2823 55.5144C84.264 56.4507 81.4171 58.656 77.2195 58.656H77.1779Z" fill="url(#paint3_linear_86_1720)"/>
<defs>
<linearGradient id="paint0_linear_86_1720" x1="57.395" y1="2.3772" x2="124.066" y2="61.8631" gradientUnits="userSpaceOnUse">
<stop stop-color="#60A5FA"/>
<stop offset="1" stop-color="#2849BE"/>
</linearGradient>
<linearGradient id="paint1_linear_86_1720" x1="53.5091" y1="6.72537" x2="120.181" y2="66.1905" gradientUnits="userSpaceOnUse">
<stop stop-color="#60A5FA"/>
<stop offset="1" stop-color="#2849BE"/>
</linearGradient>
<linearGradient id="paint2_linear_86_1720" x1="46.2776" y1="14.8386" x2="112.949" y2="74.3036" gradientUnits="userSpaceOnUse">
<stop stop-color="#60A5FA"/>
<stop offset="1" stop-color="#2849BE"/>
</linearGradient>
<linearGradient id="paint3_linear_86_1720" x1="40.5423" y1="21.2692" x2="107.214" y2="80.7342" gradientUnits="userSpaceOnUse">
<stop stop-color="#60A5FA"/>
<stop offset="1" stop-color="#2849BE"/>
</linearGradient>
</defs>
</svg>
