<svg width="104" height="49" viewBox="0 0 104 49" fill="none" xmlns="http://www.w3.org/2000/svg">
<g clip-path="url(#clip0_588_2279)">
<g opacity="0.26">
<path d="M103.13 34.1902C94.4502 36.4202 92.3702 38.7202 90.4102 48.4702C90.3202 48.9202 89.6802 48.9202 89.5902 48.4702C87.6302 38.7302 85.5502 36.4302 76.8702 34.1902C76.4502 34.0802 76.4502 33.4902 76.8702 33.3802C85.5502 31.1502 87.6302 28.8502 89.5902 19.1002C89.6802 18.6502 90.3202 18.6502 90.4102 19.1002C92.3702 28.8402 94.4502 31.1402 103.13 33.3802C103.55 33.4902 103.55 34.0802 103.13 34.1902Z" fill="#4376DB"/>
<path d="M49.4704 17.4398C43.4404 18.9898 41.9904 20.5898 40.6204 27.3698C40.5604 27.6798 40.1104 27.6798 40.0504 27.3698C38.6904 20.5998 37.2404 18.9998 31.2004 17.4398C30.9104 17.3698 30.9104 16.9498 31.2004 16.8798C37.2304 15.3298 38.6804 13.7298 40.0504 6.94979C40.1104 6.63979 40.5604 6.63979 40.6204 6.94979C41.9804 13.7198 43.4304 15.3198 49.4704 16.8798C49.7604 16.9498 49.7604 17.3698 49.4704 17.4398Z" fill="#4376DB"/>
<path d="M8.33018 6.8499C5.61018 7.5499 4.96018 8.2699 4.34018 11.3199C4.31018 11.4599 4.11018 11.4599 4.08018 11.3199C3.46018 8.2699 2.81018 7.5499 0.0901758 6.8499C-0.0398242 6.8199 -0.0398242 6.6299 0.0901758 6.5999C2.81018 5.8999 3.46018 5.1799 4.08018 2.1299C4.11018 1.9899 4.31018 1.9899 4.34018 2.1299C4.96018 5.1799 5.61018 5.8999 8.33018 6.5999C8.46018 6.6299 8.46018 6.8199 8.33018 6.8499Z" fill="#4376DB"/>
<path d="M77.5004 6.9C73.6204 7.9 72.6904 8.93 71.8104 13.29C71.7704 13.49 71.4804 13.49 71.4404 13.29C70.5604 8.93 69.6304 7.9 65.7504 6.9C65.5604 6.85 65.5604 6.59 65.7504 6.54C69.6304 5.54 70.5604 4.51 71.4404 0.15C71.4804 -0.05 71.7704 -0.05 71.8104 0.15C72.6904 4.51 73.6204 5.54 77.5004 6.54C77.6904 6.59 77.6904 6.85 77.5004 6.9Z" fill="#4376DB"/>
</g>
</g>
<defs>
<clipPath id="clip0_588_2279">
<rect width="103.44" height="48.8" fill="white"/>
</clipPath>
</defs>
</svg>
